<?xml version="1.0" encoding="utf-8"?>
<!-- Generator: Adobe Illustrator 16.0.0, SVG Export Plug-In . SVG Version: 6.00 Build 0)  -->
<!DOCTYPE svg PUBLIC "-//W3C//DTD SVG 1.1//EN" "http://www.w3.org/Graphics/SVG/1.1/DTD/svg11.dtd">
<svg version="1.1" id="Layer_1" xmlns="http://www.w3.org/2000/svg" xmlns:xlink="http://www.w3.org/1999/xlink" x="0px" y="0px"
	 width="300px" height="66px" viewBox="0 0 300 66" enable-background="new 0 0 300 66" xml:space="preserve">
<g>
	<path fill="#FFFFFF" d="M23.9463,8.9102h5.9756v29.2412c0,3.9521-1.2959,7.043-3.8857,9.2744
		c-2.5908,2.2314-6.043,3.3467-10.3569,3.3467c-4.479,0-7.9673-1.0498-10.4648-3.1484s-3.7461-5.0381-3.7461-8.8203h5.9443
		c0,2.3633,0.707,4.207,2.1211,5.5303c1.4136,1.3242,3.4624,1.9854,6.1455,1.9854c2.4565,0,4.4434-0.709,5.9604-2.127
		s2.2856-3.4033,2.3066-5.9561V8.9102z"/>
	<path fill="#FFFFFF" d="M59.8306,50.2051c-0.3306-0.6045-0.5991-1.6826-0.8052-3.2334c-2.6626,2.5342-5.8418,3.8008-9.5361,3.8008
		c-3.3027,0-6.0117-0.8555-8.1274-2.5664c-2.1162-1.7119-3.1733-3.8809-3.1733-6.5098c0-3.1953,1.3257-5.6768,3.9785-7.4443
		c2.6519-1.7681,6.3828-2.6523,11.1924-2.6523h5.5732V29.189c0-1.834-0.5991-3.2944-1.7959-4.3818
		c-1.1973-1.0869-2.9624-1.6309-5.2944-1.6309c-2.0435,0-3.7568,0.4727-5.1396,1.418c-1.3833,0.9458-2.0742,2.0898-2.0742,3.4321
		h-5.7588c0-1.5317,0.5928-3.0112,1.7803-4.439c1.1865-1.4272,2.7964-2.5566,4.8296-3.3892c2.0332-0.8315,4.2676-1.248,6.7036-1.248
		c3.8594,0,6.8833,0.8843,9.0713,2.6519c2.188,1.7686,3.3232,4.2026,3.4058,7.3032v14.124c0,2.8174,0.3921,5.0586,1.1768,6.7217
		v0.4541H59.8306z M50.3252,46.2061c1.7959,0,3.4985-0.4258,5.1084-1.2764c1.6104-0.8506,2.7759-1.957,3.499-3.3184v-6.2959h-4.4897
		c-7.0181,0-10.5269,1.8809-10.5269,5.6436c0,1.6455,0.5986,2.9316,1.7959,3.8574C46.9087,45.7432,48.4468,46.2061,50.3252,46.2061z
		"/>
	<path fill="#FFFFFF" d="M72.1221,34.5781c0-3.0068,0.645-5.7104,1.9351-8.1118c1.29-2.4009,3.0854-4.2544,5.3872-5.5591
		s4.9277-1.957,7.8799-1.957c4.5615,0,8.2515,1.4468,11.0688,4.3394c2.8174,2.8931,4.2261,6.7412,4.2261,11.5435v0.3691
		c0,2.9873-0.6245,5.667-1.873,8.04c-1.249,2.373-3.0342,4.2217-5.3564,5.5449s-4.9902,1.9854-8.0034,1.9854
		c-4.541,0-8.2202-1.4463-11.0376-4.3398c-2.8179-2.8926-4.2266-6.7217-4.2266-11.4863V34.5781z M77.8809,35.2021
		c0,3.4033,0.8618,6.1357,2.5854,8.1963c1.7231,2.0605,4.0298,3.0908,6.9199,3.0908c2.9102,0,5.2217-1.0439,6.9355-3.1338
		c1.7129-2.0889,2.5698-5.0146,2.5698-8.7773c0-3.3657-0.8726-6.0933-2.6167-8.1826s-4.061-3.1343-6.9507-3.1343
		c-2.8281,0-5.1084,1.0308-6.8423,3.0918S77.8809,31.3638,77.8809,35.2021z"/>
	<path fill="#FFFFFF" d="M116.0259,50.2051h-5.728V6.6416h5.728V50.2051z"/>
</g>
<g>
</g>
<g>
</g>
<g>
</g>
<g>
</g>
<g>
</g>
<g>
</g>
</svg>
