<?xml version="1.0" encoding="utf-8"?>
<!-- Generator: Adobe Illustrator 16.0.0, SVG Export Plug-In . SVG Version: 6.00 Build 0)  -->
<!DOCTYPE svg PUBLIC "-//W3C//DTD SVG 1.1//EN" "http://www.w3.org/Graphics/SVG/1.1/DTD/svg11.dtd">
<svg version="1.1" id="Layer_1" xmlns="http://www.w3.org/2000/svg" xmlns:xlink="http://www.w3.org/1999/xlink" x="0px" y="0px"
	 width="90px" height="130px" viewBox="0 0 90 130" enable-background="new 0 0 90 130" xml:space="preserve">
<g>
	<path fill="#ED3342" d="M5.488,1.066h79.023c2.895,0,5.242,2.347,5.242,5.242v117.383c0,2.896-2.348,5.242-5.242,5.242H5.488
		c-2.895,0-5.242-2.347-5.242-5.242V6.308C0.247,3.414,2.593,1.066,5.488,1.066z"/>
	<path fill="#EE434C" d="M50.449,26.524c-0.659,0.231-1.318,0.453-1.935,0.7c-3.775,1.514-7.447,3.668-9.711,7.154
		c-2.563,3.945-2.913,8.917-4.821,13.219c-1.878,4.232-5.316,7.751-9.503,9.728c-2.576,1.216-5.64,1.841-8.258,0.718
		c-2.984-1.278-4.633-4.43-6.05-7.352c-2.849-5.876-5.775-12.2-4.853-18.664c0.503-3.523,2.126-6.783,3.907-9.865
		c2.17-3.756,4.696-7.444,8.258-9.92c6.92-4.811,16.401-4.076,24.252-1.007c4.117,1.608,14.013,4.352,13.944,9.976
		C55.641,24.55,53.043,25.612,50.449,26.524z"/>
	<path fill="#EE434C" d="M80.568,48.519c0.512,3.091,1.021,6.181,1.533,9.271c0.453,2.74,0.906,5.509,0.732,8.28
		c-0.389,6.106-4.055,11.906-9.404,14.874c-2.205,1.224-4.758,1.992-7.246,1.6c-2.49-0.393-4.857-2.134-5.48-4.575
		c-1.129-4.418,3.48-8.504,3.215-13.057c-0.332-5.75-8.168-9.545-7.162-15.217c0.568-3.211,3.758-5.138,5.939-7.563
		c0.824-0.915,1.527-1.941,2.422-2.786c3.408-3.212,9.531-2.824,12.504,0.793C79.525,42.454,80.08,45.562,80.568,48.519z"/>
	<path fill="#EE434C" d="M70.254,88.097c3.582-1.986,8.184-1.932,11.5,1.385c5.406,5.406-0.145,19.875-8.486,17.804
		c-5.768-1.433-9.57-6.109-8.311-12.136C65.607,92.037,67.664,89.533,70.254,88.097z"/>
	<path fill="#EE434C" d="M57.52,98.67c2.182,3.176,4.4,6.432,5.404,10.151c1.004,3.719,0.58,8.058-2.051,10.874
		c-2.244,2.403-5.627,3.301-8.832,4.035c-4.629,1.063-9.359,2.016-14.094,1.653c-4.736-0.361-9.544-2.197-12.559-5.867
		c-1.163-1.417-2.049-3.133-2.145-4.963c-0.096-1.831,0.713-3.769,2.291-4.703c2.856-1.694,6.728,0.383,9.771-0.949
		c2.731-1.194,3.649-4.536,5.477-6.892c2.822-3.637,7.759-4.796,12.332-5.323c0.912-0.104,1.881-0.185,2.701,0.225
		C56.553,97.28,57.051,97.989,57.52,98.67z"/>
	<path fill="#EE434C" d="M27.828,93.093c-1.105,1.113-2.656,1.631-4.023,2.399s-2.687,2.03-2.667,3.598
		c0.008,0.558,0.188,1.111,0.112,1.664c-0.084,0.615-0.474,1.143-0.879,1.612c-1.372,1.592-3.085,2.887-4.991,3.772
		c-0.732,0.341-1.544,0.626-2.335,0.466c-1.436-0.289-2.181-1.844-2.712-3.209c-2.199-5.657-4.421-11.411-4.935-17.459
		s0.911-12.54,5.151-16.883c0.713-0.73,1.514-1.402,2.455-1.799c1.15-0.485,2.445-0.529,3.683-0.367
		c4.301,0.564,8.04,3.568,10.199,7.331c2.159,3.763,2.89,8.203,2.856,12.541C29.726,89.023,29.422,91.486,27.828,93.093z"/>
	<path fill="#EE434C" d="M63.006,31.973c1.004,0.94,2.418,1.328,3.791,1.393c4.002,0.188,7.758-2.101,10.52-5
		c2.098-2.201,3.859-5.177,3.197-8.143c-0.348-1.558-1.328-2.9-2.414-4.068c-1.441-1.547-3.234-2.932-5.334-3.175
		c-1.389-0.161-2.779,0.192-4.133,0.543c-0.871,0.226-1.748,0.454-2.57,0.823c-2.527,1.137-4.336,3.579-5.074,6.252
		c-0.738,2.673-0.488,5.547,0.307,8.204C61.643,29.966,62.119,31.14,63.006,31.973z"/>
	<path fill="#63C7D2" d="M29.257,23.558c0,0,6.627-5.844,7.953-6.206c1.325-0.361,1.084,9.038,1.084,9.038L29.257,23.558z"/>
	<path fill="#63C7D2" d="M69.92,100.51c-2.104,2.97-21.623,13.543-23.25,13.634c-1.627,0.09-0.182-16.629-0.182-16.629L69.92,100.51
		z"/>
	<path fill="#63C7D2" d="M68.32,62.188l-35.207,14.36l-15.627-6.502c0,0,34.666-13.17,35.63-12.929
		C54.08,57.357,68.32,62.188,68.32,62.188z"/>
	<polygon fill="#63C7D2" points="54.803,36.571 30.131,48.261 18.849,41.539 43.055,33.891 	"/>
	<path fill="#FFFFFF" d="M67.494,16.814c-7.1,0.731-43.922,0-45.254,1.46c-1.331,1.463-1.331,8.04-1.331,9.866
		c0,1.826,1.331,7.307,1.331,9.134c0,1.828,45.254,1.461,47.025,0.73c1.776-0.73,1.33-9.864,1.33-9.864S71.042,16.449,67.494,16.814
		z"/>
	<path fill="#FFFFFF" d="M66.453,40.01c-7.467,0.765-46.204,0-47.604,1.529c-1.4,1.529-1.4,8.412-1.4,10.324
		c0,1.911,1.4,7.647,1.4,9.56s47.604,1.529,49.472,0.765s1.4-10.324,1.4-10.324S70.188,39.627,66.453,40.01z"/>
	<path fill="#FFFFFF" d="M76.106,62.978c-10.377,1.479-64.214,0-66.161,2.961C8,68.897,8,82.212,8,85.911s1.946,14.796,1.946,18.494
		c0,3.699,66.161,2.96,68.755,1.48c2.594-1.48,1.946-19.975,1.946-19.975S81.295,62.239,76.106,62.978z"/>
</g>
</svg>
